<svg xmlns="http://www.w3.org/2000/svg" version="1.1" xmlns:xlink="http://www.w3.org/1999/xlink" xmlns:svgjs="http://svgjs.dev/svgjs" width="1000" height="750" viewBox="0 0 1000 750"><rect width="1000" height="750" fill="#ffffff"></rect><g transform="matrix(0.834,0,0,0.834,82.49454545454546,115.4193570850203)"><svg viewBox="0 0 396 247" data-background-color="#ffffff" preserveAspectRatio="xMidYMid meet" height="623" width="1000" xmlns="http://www.w3.org/2000/svg" xmlns:xlink="http://www.w3.org/1999/xlink"><g id="tight-bounds" transform="matrix(1,0,0,1,0.2400000000000091,-0.09999999999999432)"><svg viewBox="0 0 395.52 247.2" height="247.2" width="395.52"><g><svg></svg></g><g><svg viewBox="0 0 395.52 247.2" height="247.2" width="395.52"><g transform="matrix(1,0,0,1,75.54432,105.90011178067154)"><svg viewBox="0 0 244.43135999999998 35.39977643865692" height="35.39977643865692" width="244.43135999999998"><g><svg viewBox="0 0 299.43369098486977 43.3654900871405" height="35.39977643865692" width="244.43135999999998"><g><rect width="2.829771815661433" height="37.654550003305786" x="251.83913962215033" y="2.855470041917357" fill="#000000" opacity="1" stroke-width="0" stroke="transparent" fill-opacity="1" class="rect-s$-0" data-fill-palette-color="primary" rx="1%" id="s$-0" data-palette-color="#636365"></rect></g><g transform="matrix(1,0,0,1,0,5.993349208859506)"><svg viewBox="0 0 244.43135999999998 31.37879166942149" height="31.37879166942149" width="244.43135999999998"><g id="textblocktransform"><svg viewBox="0 0 244.43135999999998 31.37879166942149" height="31.37879166942149" width="244.43135999999998" id="textblock"><g><svg viewBox="0 0 244.43135999999998 31.37879166942149" height="31.37879166942149" width="244.43135999999998"><g transform="matrix(1,0,0,1,0,0)"><svg width="244.43135999999998" viewBox="2.15 -34.6 272.23 34.95" height="31.37879166942149" data-palette-color="#636365"><path d="M17.1-34.6L17.1-34.6Q23.05-34.6 27.25-32.15 31.45-29.7 31.45-26.95L31.45-26.95Q31.45-26.2 31.13-25.68 30.8-25.15 30.33-24.93 29.85-24.7 29.3-24.7L29.3-24.7Q28.4-24.7 26.6-25.63 24.8-26.55 22.6-27.48 20.4-28.4 18.55-28.4L18.55-28.4Q15.6-28.4 15.6-26L15.6-26Q15.6-25.25 16.07-24.58 16.55-23.9 17.6-23.18 18.65-22.45 19.65-21.9 20.65-21.35 22.4-20.43 24.15-19.5 25.35-18.8L25.35-18.8Q29.2-16.6 30.75-14.6 32.3-12.6 32.3-10L32.3-10Q32.3 0.35 18.35 0.35L18.35 0.35Q15.6 0.35 13.03-0.2 10.45-0.75 8.53-1.65 6.6-2.55 5.13-3.65 3.65-4.75 2.9-5.9 2.15-7.05 2.15-8.05L2.15-8.05Q2.15-9.15 2.88-9.93 3.6-10.7 5-10.7L5-10.7Q6.05-10.7 10.05-9.38 14.05-8.05 16.5-8.05L16.5-8.05Q18.75-8.05 18.75-9.6L18.75-9.6Q18.75-10.05 18.57-10.43 18.4-10.8 17.98-11.18 17.55-11.55 17.03-11.88 16.5-12.2 15.58-12.7 14.65-13.2 13.73-13.7 12.8-14.2 11.3-15 9.8-15.8 8.4-16.6L8.4-16.6Q6.55-17.65 5.23-19.2 3.9-20.75 3.3-22.28 2.7-23.8 2.7-25.1L2.7-25.1Q2.7-29.3 6.45-31.95 10.2-34.6 17.1-34.6ZM70.85-28.7L70.85-7.5Q70.85-3.45 69.4-1.73 67.95 0 65 0L65 0Q62.1 0 60.75-1.58 59.4-3.15 59.4-7.15L59.4-7.15 59.35-12.8 49.15-12.8 49.15-7.5Q49.15-3.4 47.75-1.7 46.35 0 43.3 0L43.3 0Q40.4 0 39.05-1.58 37.7-3.15 37.7-7.15L37.7-7.15 37.55-28.25Q37.55-31.35 39.12-32.8 40.7-34.25 43.3-34.25L43.3-34.25Q46.3-34.25 47.72-33.15 49.15-32.05 49.15-28.7L49.15-28.7 49.15-20.3 59.3-20.3 59.3-28.25Q59.3-30.35 60.07-31.73 60.85-33.1 62.07-33.68 63.3-34.25 65-34.25L65-34.25Q67.9-34.25 69.37-33.15 70.85-32.05 70.85-28.7L70.85-28.7ZM88.7-28.7L88.7-7.5Q88.7-3.6 87.25-1.8 85.8 0 82.85 0L82.85 0Q79.95 0 78.57-1.55 77.2-3.1 77.2-7.1L77.2-7.1 77.2-28.25Q77.2-34.25 82.85-34.25L82.85-34.25Q85.75-34.25 87.22-33.15 88.7-32.05 88.7-28.7L88.7-28.7ZM113.34-22.4L113.34-22.4Q113.34-24.25 112.99-25.33 112.64-26.4 111.77-26.95 110.89-27.5 109.87-27.68 108.84-27.85 107.04-27.85L107.04-27.85 107.04-16.85Q108.44-16.85 109.52-17.1 110.59-17.35 111.49-17.95 112.39-18.55 112.87-19.68 113.34-20.8 113.34-22.4ZM107.04-10.3L107.04-7.5Q107.04-3.45 105.54-1.73 104.04 0 100.94 0L100.94 0Q97.84 0 96.39-1.58 94.94-3.15 94.94-7.15L94.94-7.15 94.94-28.25Q94.94-31.3 96.59-32.77 98.24-34.25 100.94-34.25L100.94-34.25 109.84-34.25Q113.09-34.25 115.84-33.38 118.59-32.5 120.62-30.93 122.64-29.35 123.77-26.98 124.89-24.6 124.89-21.7L124.89-21.7Q124.89-18.15 122.84-15.53 120.79-12.9 117.44-11.6 114.09-10.3 109.89-10.3L109.89-10.3 107.04-10.3ZM159.74-5.2L159.74-18.3 153.49-5.5Q152.69-3.9 151.79-3.23 150.89-2.55 149.64-2.55L149.64-2.55Q148.04-2.55 146.94-3.68 145.84-4.8 144.09-7.75L144.09-7.75 138.29-18.3 138.29-4.15Q138.29-2 137.32-1 136.34 0 134.39 0L134.39 0Q132.19 0 131.19-0.98 130.19-1.95 130.19-4.8L130.19-4.8 130.19-26.6Q130.19-30.45 131.94-32.4 133.69-34.35 137.84-34.35L137.84-34.35Q139.39-34.35 140.54-33.83 141.69-33.3 142.27-32.63 142.84-31.95 143.39-30.95L143.39-30.95 150.09-16.3 157.19-30.7Q159.04-34.3 163.84-34.3L163.84-34.3Q166.09-34.3 167.69-33.52 169.29-32.75 170.22-31.03 171.14-29.3 171.14-26.7L171.14-26.7 171.14-4.95Q171.09 0 164.89 0L164.89 0Q162.64 0 161.22-1.23 159.79-2.45 159.74-5.2L159.74-5.2ZM192.24-26.1L192.24-26.1Q190.09-26.1 189.06-24.85 188.04-23.6 188.04-20.4L188.04-20.4 188.04-14.5 196.34-14.5 196.34-20.5Q196.34-22.6 195.84-23.88 195.34-25.15 194.46-25.63 193.59-26.1 192.24-26.1ZM196.34-4.95L196.34-7.6 188.04-7.6 188.04-4.95Q188.04-2.4 186.69-1.2 185.34 0 182.04 0L182.04 0Q180.64 0 179.74-0.4 178.84-0.8 178.16-1.75 177.49-2.7 177.16-4.53 176.84-6.35 176.66-8.93 176.49-11.5 176.49-15.45L176.49-15.45Q176.49-18.9 177.21-21.78 177.94-24.65 179.16-26.65 180.39-28.65 181.94-30.18 183.49-31.7 185.31-32.55 187.14-33.4 188.86-33.83 190.59-34.25 192.34-34.25L192.34-34.25Q194.44-34.25 196.49-33.68 198.54-33.1 200.64-31.7 202.74-30.3 204.31-28.23 205.89-26.15 206.89-22.85 207.89-19.55 207.89-15.45L207.89-15.45Q207.89-8.85 207.41-5.68 206.94-2.5 205.81-1.25 204.69 0 202.34 0L202.34 0Q199.04 0 197.69-1.2 196.34-2.4 196.34-4.95L196.34-4.95ZM231.04-25.6L231.04-7.5Q231.04-4.65 230.34-2.98 229.64-1.3 228.41-0.65 227.19 0 225.19 0L225.19 0Q222.24 0 220.91-1.58 219.59-3.15 219.54-7.15L219.54-7.15 219.44-25.6 215.19-25.6Q212.04-25.6 210.46-26.6 208.89-27.6 208.89-30.15L208.89-30.15Q208.89-31.7 209.51-32.6 210.14-33.5 211.39-33.88 212.64-34.25 214.74-34.25L214.74-34.25 236.14-34.25Q238.94-34.25 240.19-33.25 241.44-32.25 241.44-29.8L241.44-29.8Q241.44-28.15 240.71-27.23 239.99-26.3 238.79-25.95 237.59-25.6 235.69-25.6L235.69-25.6 231.04-25.6ZM258.23-20.3L266.83-20.3Q269.48-20.3 270.56-19.45 271.63-18.6 271.63-16.55L271.63-16.55Q271.63-14.85 270.36-14.13 269.08-13.4 266.38-13.4L266.38-13.4 258.28-13.4 258.28-8.1 269.13-8.05Q271.93-8.05 273.16-7.23 274.38-6.4 274.38-4.3L274.38-4.3Q274.38-1.9 272.96-0.95 271.53 0 268.63 0L268.63 0 252.43 0Q249.48 0 248.11-1.58 246.73-3.15 246.73-7.15L246.73-7.15 246.73-28.25Q246.73-34.25 252.43-34.25L252.43-34.25 268.63-34.25Q271.53-34.25 272.96-33.35 274.38-32.45 274.38-30.1L274.38-30.1Q274.38-27.9 273.16-27.03 271.93-26.15 269.13-26.15L269.13-26.15 258.23-26.15 258.23-20.3Z" opacity="1" transform="matrix(1,0,0,1,0,0)" fill="#000000" class="undefined-text-0" data-fill-palette-color="primary" id="text-0"></path></svg></g></svg></g></svg></g></svg></g><g transform="matrix(1,0,0,1,262.0766910599621,0)"><svg viewBox="0 0 37.35699992490763 43.3654900871405" height="43.3654900871405" width="37.35699992490763"><g><svg xmlns="http://www.w3.org/2000/svg" xmlns:xlink="http://www.w3.org/1999/xlink" version="1.1" x="0" y="0" viewBox="19.199 15.079999999999998 60.352000000000004 70.059" enable-background="new 0 0 100 100" xml:space="preserve" height="43.3654900871405" width="37.35699992490763" class="icon-icon-0" data-fill-palette-color="accent" id="icon-0"><g fill="#636365" data-fill-palette-color="accent"><path d="M19.199 29.64l1.412 23.969c0 1.392 1.005 2.545 2.328 2.779-0.017 0.122-0.029 0.245-0.029 0.371v25.742c0 1.456 1.179 2.634 2.634 2.634 0.091 0 0.182-0.004 0.271-0.012h5.692c1.455 0 2.635 0.231 2.635-1.224s-1.18-2.635-2.635-2.635l-3.328-0.789V56.76c0-0.145-0.015-0.285-0.037-0.424 1.207-0.32 2.097-1.419 2.097-2.727L30.08 42.457l6.61 7.619c0.888 1.023 2.438 1.134 3.461 0.246 1.024-0.888 1.134-2.438 0.246-3.463L29.971 34.842l-0.049-3.395-7.897-4.634C20.464 26.814 19.199 28.079 19.199 29.64z" fill="#000000" data-fill-palette-color="accent"></path><circle cx="25.545" cy="20.528" r="5.4" fill="#000000" data-fill-palette-color="accent"></circle></g><g fill="#636365" data-fill-palette-color="accent"><g fill="#636365" data-fill-palette-color="accent"><path d="M75.26 40.103h-4.535l6.062 6.061v-4.536C76.786 40.786 76.104 40.103 75.26 40.103z" fill="#000000" data-fill-palette-color="accent"></path><path d="M47.814 40.103c-0.842 0-1.525 0.683-1.525 1.524v27.447c0 0.842 0.683 1.525 1.525 1.525H75.26c0.844 0 1.525-0.685 1.525-1.525V48.627l-8.525-8.524H47.814zM66.154 68.947h-1.411v-1.41h1.411V68.947zM71.117 67.537h1.41v1.41h-1.41V67.537zM69.479 68.947h-1.41v-1.41h1.41V68.947z" fill="#000000" data-fill-palette-color="accent"></path></g><polygon points="44.909,71.973 44.909,48.417 44.909,48.417 44.909,46.478 37.612,46.478 37.612,48.417 42.969,48.417    42.969,71.973 42.969,73.914 79.551,73.914 79.551,71.973  " fill="#000000" data-fill-palette-color="accent"></polygon><path d="M50.727 75.439c-2.679 0-4.851 2.17-4.851 4.849 0 2.68 2.172 4.851 4.851 4.851 2.678 0 4.85-2.173 4.85-4.851C55.576 77.609 53.404 75.439 50.727 75.439zM50.727 81.813c-0.842 0-1.524-0.683-1.524-1.524 0-0.843 0.683-1.522 1.524-1.522s1.524 0.682 1.524 1.522C52.25 81.13 51.568 81.813 50.727 81.813z" fill="#000000" data-fill-palette-color="accent"></path><path d="M70.298 75.439c-2.68 0-4.85 2.17-4.85 4.849 0 2.68 2.171 4.851 4.85 4.851s4.851-2.173 4.851-4.851C75.148 77.609 72.977 75.439 70.298 75.439zM70.298 81.813c-0.841 0-1.524-0.683-1.524-1.524 0-0.843 0.685-1.522 1.524-1.522 0.843 0 1.525 0.682 1.525 1.522C71.822 81.13 71.141 81.813 70.298 81.813z" fill="#000000" data-fill-palette-color="accent"></path></g></svg></g></svg></g></svg></g></svg></g><path d="M214.569 99.9L214.569 34.976 391.818 34.976 391.818 212.224 214.569 212.224 214.569 147.3 216.879 147.3 216.879 209.914 389.508 209.914 389.508 37.286 216.879 37.286 216.879 99.9Z" fill="#000000" stroke="transparent" data-fill-palette-color="primary"></path></svg></g><defs></defs></svg><rect width="395.52" height="247.2" fill="none" stroke="none" visibility="hidden"></rect></g></svg></g></svg>